<?xml version="1.0" encoding="iso-8859-1"?>
<!-- Generator: Adobe Illustrator 19.0.0, SVG Export Plug-In . SVG Version: 6.00 Build 0)  -->
<svg version="1.1" id="Capa_1" xmlns="http://www.w3.org/2000/svg" xmlns:xlink="http://www.w3.org/1999/xlink" x="0px" y="0px"
	 viewBox="0 0 512.003 512.003" style="enable-background:new 0 0 512.003 512.003;" xml:space="preserve">
<circle style="fill:#F5A338;" cx="304.551" cy="26.483" r="26.483"/>
<polygon style="fill:#FBCCAD;" points="304.553,203.034 304.553,220.69 313.38,335.448 348.691,335.448 348.691,203.034 "/>
<rect x="75.031" y="132.41" style="fill:#337AB5;" width="17.655" height="326.62"/>
<g>
	<polygon style="fill:#FBCCAD;" points="304.553,220.69 304.553,141.241 216.277,141.241 216.277,220.69 198.622,370.759 
		322.208,370.759 	"/>
	<path style="fill:#FBCCAD;" d="M290.995,35.61c-9.534-16.949-30.994-22.961-47.943-13.427
		c-11.114,6.25-17.982,18.026-17.946,30.782V70.62c0,19.5,15.81,35.31,35.31,35.31c1.156,0,2.322-0.053,3.469-0.168
		c18.423-2.295,32.15-18.105,31.841-36.661V52.966C295.69,46.866,294.057,40.881,290.995,35.61z"/>
</g>
<path style="fill:#F5A338;" d="M290.995,35.61c-9.534-16.949-30.994-22.961-47.943-13.427c-11.114,6.25-17.982,18.026-17.946,30.782
	v14.68C243.987,63.559,273.534,54.484,290.995,35.61z"/>
<polygon style="fill:#EBEBEB;" points="304.553,220.69 304.553,141.241 286.898,141.241 260.415,185.379 233.88,141.241 
	216.277,141.241 216.277,220.69 198.622,370.759 322.208,370.759 "/>
<g>
	<path style="fill:#4398D1;" d="M315.737,315.727l-11.185-95.038h-88.276l-11.185,95.038c-1.139,9.684,5.782,18.458,15.466,19.597
		c0.689,0.079,1.386,0.124,2.074,0.124h75.564c9.754,0,17.655-7.901,17.664-17.646C315.861,317.105,315.818,316.416,315.737,315.727
		z"/>
	<polygon style="fill:#4398D1;" points="216.277,476.69 198.622,512 260.415,512 260.415,476.69 	"/>
</g>
<rect x="216.281" y="370.76" style="fill:#FBCCAD;" width="44.14" height="105.93"/>
<polygon style="fill:#4398D1;" points="304.553,476.69 322.208,512 260.415,512 260.415,476.69 "/>
<g>
	<rect x="260.411" y="370.76" style="fill:#FBCCAD;" width="44.14" height="105.93"/>
	<path style="fill:#FBCCAD;" d="M136.829,211.862H66.208v35.31h88.02c5.703,0,11.052-2.754,14.362-7.398l26.765-36.74
		l-32.044-26.703L136.829,211.862z"/>
</g>
<path style="fill:#EBEBEB;" d="M203.035,141.241c-8.333,0-16.181,3.928-21.186,10.593l-18.538,24.497l32.044,26.703l12.094-17.655
	h8.828v-44.138H203.035z"/>
<polygon style="fill:#97D3E6;" points="145.656,512 22.07,512 39.725,459.034 128.001,459.034 "/>
<g>
	<rect x="57.381" y="485.52" style="fill:#7DBDD1;" width="17.655" height="26.483"/>
	<rect x="92.691" y="485.52" style="fill:#7DBDD1;" width="17.655" height="26.483"/>
</g>
<rect x="13.242" y="450.21" style="fill:#337AB5;" width="141.24" height="17.655"/>
<path style="fill:#EBEBEB;" d="M348.691,176.552c0-19.5-15.81-35.31-35.31-35.31h-8.828v61.793h44.138V176.552z"/>
<polygon style="fill:#4398D1;" points="481.104,512 392.829,512 375.173,406.069 498.76,406.069 "/>
<path style="fill:#97D3E6;" d="M498.76,406.069h-17.655v-17.655c0-24.373-19.765-44.138-44.138-44.138s-44.138,19.765-44.138,44.138
	v17.655h-17.655v-17.655c0-34.127,27.666-61.793,61.793-61.793s61.793,27.666,61.793,61.793l0,0V406.069z"/>
<rect x="251.591" y="370.76" style="fill:#FFC096;" width="17.655" height="105.93"/>
<rect x="251.591" y="476.69" style="fill:#337AB5;" width="17.655" height="35.31"/>
<path style="fill:#4193C9;" d="M305.074,225.103c-23.296,41.675-56.982,76.615-97.792,101.411c3.134,5.526,8.995,8.934,15.351,8.934
	h75.564c9.754,0,17.655-7.901,17.664-17.646c0-0.689-0.044-1.386-0.124-2.074L305.074,225.103z"/>
<g>
</g>
<g>
</g>
<g>
</g>
<g>
</g>
<g>
</g>
<g>
</g>
<g>
</g>
<g>
</g>
<g>
</g>
<g>
</g>
<g>
</g>
<g>
</g>
<g>
</g>
<g>
</g>
<g>
</g>
</svg>
