<?xml version="1.0" encoding="iso-8859-1"?>
<!-- Generator: Adobe Illustrator 19.0.0, SVG Export Plug-In . SVG Version: 6.00 Build 0)  -->
<svg version="1.1" id="Capa_1" xmlns="http://www.w3.org/2000/svg" xmlns:xlink="http://www.w3.org/1999/xlink" x="0px" y="0px"
	 viewBox="0 0 512 512" style="enable-background:new 0 0 512 512;" xml:space="preserve">
<path style="fill:#4398D1;" d="M328.533,221.867v119.467h34.133V460.8H448V341.333h34.133V221.867c0-28.279-22.921-51.2-51.2-51.2
	h-51.2C351.454,170.667,328.533,193.587,328.533,221.867z"/>
<path style="fill:#4193C9;" d="M468.011,186.624c-11.307,69.222-49.084,131.337-105.344,173.218V460.8H448V341.333h34.133V221.867
	C482.142,208.742,477.082,196.113,468.011,186.624z"/>
<polygon style="fill:#4398D1;" points="81.067,170.667 29.867,341.333 72.533,341.333 72.533,460.8 157.867,460.8 157.867,341.333 
	200.533,341.333 149.333,170.667 "/>
<path style="fill:#4193C9;" d="M72.533,358.861V460.8h85.333V341.333h42.667l-30.549-101.82
	C148.898,287.377,115.217,328.627,72.533,358.861z"/>
<circle style="fill:#4398D1;" cx="115.2" cy="93.87" r="42.667"/>
<rect x="106.67" y="332.8" style="fill:#398CC4;" width="17.07" height="128"/>
<circle style="fill:#4398D1;" cx="405.33" cy="93.87" r="42.667"/>
<rect x="251.73" style="fill:#97D3E6;" width="17.07" height="512"/>
<g>
	<rect x="354.13" y="230.4" style="fill:#398CC4;" width="17.07" height="110.93"/>
	<rect x="439.47" y="230.4" style="fill:#398CC4;" width="17.07" height="110.93"/>
	<rect x="396.8" y="332.8" style="fill:#398CC4;" width="17.07" height="128"/>
</g>
<g>
</g>
<g>
</g>
<g>
</g>
<g>
</g>
<g>
</g>
<g>
</g>
<g>
</g>
<g>
</g>
<g>
</g>
<g>
</g>
<g>
</g>
<g>
</g>
<g>
</g>
<g>
</g>
<g>
</g>
</svg>
