<?xml version="1.0" encoding="iso-8859-1"?>
<!-- Generator: Adobe Illustrator 19.0.0, SVG Export Plug-In . SVG Version: 6.00 Build 0)  -->
<svg version="1.1" id="Capa_1" xmlns="http://www.w3.org/2000/svg" xmlns:xlink="http://www.w3.org/1999/xlink" x="0px" y="0px"
	 viewBox="0 0 512.006 512.006" style="enable-background:new 0 0 512.006 512.006;" xml:space="preserve">
<path style="fill:#8ACCE6;" d="M512,227.109H22.069C9.878,227.109,0,236.987,0,249.178c0,12.191,9.878,22.069,22.069,22.069
	C9.878,271.247,0,281.125,0,293.316s9.878,22.069,22.069,22.069C9.878,315.385,0,325.263,0,337.454s9.878,22.069,22.069,22.069
	C9.878,359.523,0,369.401,0,381.592s9.878,22.069,22.069,22.069h161.792l-35.31,35.31c-9.754,9.754-9.754,25.556,0,35.31
	s25.556,9.754,35.31,0l70.621-70.621H512V227.109z"/>
<g>
	<path style="fill:#6DB9D1;" d="M114.759,280.075H17.655c-4.873,0-8.828-3.955-8.828-8.828c0-4.873,3.955-8.828,8.828-8.828h97.103
		c4.873,0,8.828,3.955,8.828,8.828C123.586,276.12,119.631,280.075,114.759,280.075z"/>
	<path style="fill:#6DB9D1;" d="M114.759,324.213H17.655c-4.873,0-8.828-3.955-8.828-8.828s3.955-8.828,8.828-8.828h97.103
		c4.873,0,8.828,3.955,8.828,8.828S119.631,324.213,114.759,324.213z"/>
	<path style="fill:#6DB9D1;" d="M114.759,368.35H17.655c-4.873,0-8.828-3.955-8.828-8.828c0-4.873,3.955-8.828,8.828-8.828h97.103
		c4.873,0,8.828,3.955,8.828,8.828C123.586,364.396,119.631,368.35,114.759,368.35z"/>
</g>
<path style="fill:#9CD1E6;" d="M494.345,200.626L494.345,200.626c9.754,0,17.655,7.901,17.655,17.655v194.207
	c0,9.754-7.901,17.655-17.655,17.655l0,0c-9.754,0-17.655-7.901-17.655-17.655V218.281
	C476.69,208.536,484.59,200.626,494.345,200.626z"/>
<path style="fill:#97D3E6;" d="M375.746,485.431L41.772,146.549c-8.58-8.66-8.519-22.634,0.141-31.206
	c8.607-8.527,22.475-8.527,31.073,0c-8.589-8.642-8.545-22.616,0.097-31.206c8.598-8.536,22.466-8.554,31.082-0.026
	c-8.651-8.58-8.713-22.554-0.132-31.214s22.554-8.713,31.214-0.132c0.044,0.044,0.088,0.088,0.132,0.132
	c-8.66-8.58-8.722-22.554-0.141-31.206c8.58-8.66,22.554-8.722,31.206-0.141c0.044,0.044,0.088,0.088,0.132,0.132L280.99,136.088
	V86.185c-0.009-13.789,11.158-24.973,24.947-24.982c13.789-0.009,24.973,11.158,24.982,24.947c0,0.018,0,0.026,0,0.044v99.866
	L500.577,360.6L375.746,485.431z"/>
<g>
	<path style="fill:#7DBDD1;" d="M140.615,189.839c-2.339,0.009-4.59-0.927-6.241-2.586L63.62,118.459
		c-3.39-3.505-3.293-9.092,0.221-12.482c3.425-3.302,8.845-3.302,12.262,0l70.753,68.793c3.443,3.452,3.443,9.039,0,12.482
		C145.196,188.912,142.954,189.839,140.615,189.839z"/>
	<path style="fill:#7DBDD1;" d="M171.82,158.633c-2.339,0-4.59-0.927-6.241-2.586L94.835,87.254
		c-3.505-3.39-3.602-8.978-0.221-12.482c3.39-3.505,8.978-3.602,12.482-0.221c0.071,0.071,0.15,0.141,0.221,0.221l70.744,68.793
		c3.443,3.452,3.443,9.039,0,12.482C176.402,157.707,174.159,158.633,171.82,158.633z"/>
	<path style="fill:#7DBDD1;" d="M203.034,127.419c-2.339,0-4.59-0.927-6.241-2.586L126.04,56.039
		c-3.505-3.39-3.602-8.978-0.221-12.482c3.39-3.505,8.978-3.602,12.482-0.221c0.071,0.071,0.15,0.141,0.221,0.221l70.753,68.793
		c3.443,3.452,3.443,9.039,0,12.482C207.616,126.492,205.374,127.419,203.034,127.419z"/>
</g>
<path style="fill:#B1E1F0;" d="M506.836,329.385L506.836,329.385c6.894,6.894,6.894,18.07,0,24.964L369.505,491.681
	c-6.894,6.894-18.07,6.894-24.964,0l0,0c-6.894-6.894-6.894-18.07,0-24.964l137.322-137.322
	C488.757,322.491,499.941,322.491,506.836,329.385z"/>
<g>
</g>
<g>
</g>
<g>
</g>
<g>
</g>
<g>
</g>
<g>
</g>
<g>
</g>
<g>
</g>
<g>
</g>
<g>
</g>
<g>
</g>
<g>
</g>
<g>
</g>
<g>
</g>
<g>
</g>
</svg>
