<?xml version="1.0" encoding="iso-8859-1"?>
<!-- Generator: Adobe Illustrator 19.0.0, SVG Export Plug-In . SVG Version: 6.00 Build 0)  -->
<svg version="1.1" id="Capa_1" xmlns="http://www.w3.org/2000/svg" xmlns:xlink="http://www.w3.org/1999/xlink" x="0px" y="0px"
	 viewBox="0 0 512 512" style="enable-background:new 0 0 512 512;" xml:space="preserve">
<path style="fill:#FBCCAD;" d="M512,512H119.172c-12.191,0-22.069-9.878-22.069-22.069s9.878-22.069,22.069-22.069
	c-12.191,0-22.069-9.878-22.069-22.069s9.878-22.069,22.069-22.069c-12.191,0-22.069-9.878-22.069-22.069
	s9.878-22.069,22.069-22.069c-12.191,0-22.069-9.878-22.069-22.069s9.878-22.069,22.069-22.069h161.792l-35.31-35.31
	c-9.754-9.754-9.754-25.556,0-35.31s25.556-9.754,35.31,0l70.621,70.621H512"/>
<path style="fill:#EBEBEB;" d="M238.345,0H0v52.966h238.345v70.621h52.965V52.966C291.31,23.711,267.599,0,238.345,0z"/>
<rect x="238.34" y="79.45" style="fill:#D4D4D4;" width="52.966" height="17.655"/>
<g>
	
		<rect x="75.789" y="255.993" transform="matrix(0.7071 -0.7071 0.7071 0.7071 -161.4026 139.9808)" style="fill:#97D3E6;" width="24.964" height="17.655"/>
	
		<rect x="111.099" y="220.689" transform="matrix(0.7071 -0.7071 0.7071 0.7071 -126.0964 154.6082)" style="fill:#97D3E6;" width="24.964" height="17.655"/>
	
		<rect x="146.419" y="185.358" transform="matrix(0.7071 -0.7071 0.7071 0.7071 -90.769 169.2352)" style="fill:#97D3E6;" width="24.964" height="17.655"/>
	
		<rect x="181.731" y="150.056" transform="matrix(0.7071 -0.7071 0.7071 0.7071 -55.464 183.8656)" style="fill:#97D3E6;" width="24.964" height="17.655"/>
	
		<rect x="432.553" y="252.321" transform="matrix(0.7071 -0.7071 0.7071 0.7071 -57.9662 389.6619)" style="fill:#97D3E6;" width="17.655" height="24.964"/>
	
		<rect x="397.238" y="217.011" transform="matrix(0.7071 -0.7071 0.7071 0.7071 -43.3417 354.3487)" style="fill:#97D3E6;" width="17.655" height="24.964"/>
	
		<rect x="361.927" y="181.708" transform="matrix(0.7071 -0.7071 0.7071 0.7071 -28.7213 319.0396)" style="fill:#97D3E6;" width="17.655" height="24.964"/>
	
		<rect x="326.612" y="146.398" transform="matrix(0.7071 -0.7071 0.7071 0.7071 -14.0968 283.7263)" style="fill:#97D3E6;" width="17.655" height="24.964"/>
	
		<rect x="230.779" y="160.132" transform="matrix(0.4697 -0.8828 0.8828 0.4697 -20.9842 302.9853)" style="fill:#97D3E6;" width="21.865" height="17.655"/>
	
		<rect x="209.928" y="196.996" transform="matrix(0.4697 -0.8828 0.8828 0.4697 -63.9662 305.1561)" style="fill:#97D3E6;" width="24.199" height="17.655"/>
	
		<rect x="190.001" y="235.55" transform="matrix(0.4697 -0.8828 0.8828 0.4697 -108.8737 307.5017)" style="fill:#97D3E6;" width="23.049" height="17.655"/>
	
		<rect x="170.18" y="271.854" transform="matrix(0.4697 -0.8828 0.8828 0.4697 -151.1802 309.6788)" style="fill:#97D3E6;" width="24.009" height="17.655"/>
	
		<rect x="279.195" y="157.993" transform="matrix(0.8829 -0.4695 0.4695 0.8829 -45.5929 155.0076)" style="fill:#97D3E6;" width="17.656" height="21.866"/>
	
		<rect x="298.794" y="193.72" transform="matrix(0.8828 -0.4697 0.4697 0.8828 -60.6289 168.6111)" style="fill:#97D3E6;" width="17.655" height="24.199"/>
	
		<rect x="319.298" y="232.866" transform="matrix(0.8828 -0.4698 0.4698 0.8828 -76.349 182.798)" style="fill:#97D3E6;" width="17.656" height="23.051"/>
	
		<rect x="338.624" y="268.738" transform="matrix(0.8827 -0.4699 0.4699 0.8827 -91.1728 196.1971)" style="fill:#97D3E6;" width="17.655" height="24.01"/>
</g>
<g>
	<path style="fill:#FAB98F;" d="M331.97,440.664c-40.218-17.037-64.724-58.209-60.522-101.685l0.185-3.531h18.538l-0.883,4.652
		c-3.858,35.964,16.269,70.215,49.567,84.339L331.97,440.664z"/>
	<rect x="105.93" y="459.03" style="fill:#FAB98F;" width="114.76" height="17.655"/>
	<rect x="105.93" y="414.9" style="fill:#FAB98F;" width="114.76" height="17.655"/>
	<rect x="105.93" y="370.76" style="fill:#FAB98F;" width="114.76" height="17.655"/>
</g>
<path style="fill:#F7C6A6;" d="M240.11,512H512V335.448h-31.885C424.607,435.438,325.191,486.223,240.11,512z"/>
<g>
</g>
<g>
</g>
<g>
</g>
<g>
</g>
<g>
</g>
<g>
</g>
<g>
</g>
<g>
</g>
<g>
</g>
<g>
</g>
<g>
</g>
<g>
</g>
<g>
</g>
<g>
</g>
<g>
</g>
</svg>
