<?xml version="1.0" encoding="iso-8859-1"?>
<!-- Generator: Adobe Illustrator 19.0.0, SVG Export Plug-In . SVG Version: 6.00 Build 0)  -->
<svg version="1.1" id="Capa_1" xmlns="http://www.w3.org/2000/svg" xmlns:xlink="http://www.w3.org/1999/xlink" x="0px" y="0px"
	 viewBox="0 0 512 512" style="enable-background:new 0 0 512 512;" xml:space="preserve">
<path style="fill:#F5A338;" d="M138.847,56.403v104.136c0,9.589,7.767,17.356,17.356,17.356h260.339V39.047H156.203
	C146.614,39.047,138.847,46.813,138.847,56.403z"/>
<rect x="416.54" y="65.079" style="fill:#FBCCAD;" width="95.46" height="86.78"/>
<path style="fill:#97D3E6;" d="M355.797,299.386H147.525l40.361-174.896c6.856-29.696,33.297-50.731,63.774-50.731l0,0
	c30.477,0,56.919,21.035,63.774,50.731L355.797,299.386z"/>
<g>
	
		<rect x="287.245" y="159.955" transform="matrix(0.9923 -0.124 0.124 0.9923 -27.0729 38.5209)" style="fill:#7DBDD1;" width="17.356" height="153.593"/>
	
		<rect x="159.749" y="243.003" transform="matrix(0.1788 -0.9839 0.9839 0.1788 -76.5984 411.5811)" style="fill:#7DBDD1;" width="97.021" height="17.348"/>
</g>
<path style="fill:#F9B44D;" d="M156.203,39.047h60.746c9.589,0,17.356,7.767,17.356,17.356v104.136
	c0,9.589-7.767,17.356-17.356,17.356h-60.746c-9.589,0-17.356-7.767-17.356-17.356V56.403
	C138.847,46.813,146.614,39.047,156.203,39.047z"/>
<path style="fill:#F5A338;" d="M216.949,30.369h-17.356v17.356h17.356c4.79,0,8.678,3.888,8.678,8.678v8.678h-52.068v17.356h52.068
	v17.356h-52.068v17.356h52.068v17.356h-52.068v17.356h52.068v8.678c0,4.79-3.888,8.678-8.678,8.678h-43.39v17.356h43.39
	c14.379,0,26.034-11.655,26.034-26.034V56.403C242.983,42.023,231.329,30.369,216.949,30.369z"/>
<g>
	<circle style="fill:#EBEBEB;" cx="26.03" cy="99.789" r="26.03"/>
	<circle style="fill:#EBEBEB;" cx="78.1" cy="177.899" r="17.356"/>
</g>
<path style="fill:#F9B44D;" d="M242.983,39.047h34.712l-25.721-25.721C239.99,1.342,220.56,1.35,208.576,13.335
	c-5.745,5.745-8.982,13.546-8.982,21.686v25.721c0,11.984,9.711,21.695,21.695,21.695s21.695-9.719,21.695-21.695V39.047H242.983z"
	/>
<g>
	<path style="fill:#EBEBEB;" d="M207.49,299.386c4.339-20.766-8.973-41.125-29.748-45.464c-10.934-2.282-22.328,0.304-31.197,7.09
		v-0.191c0.451-17.044-12.991-31.223-30.034-31.683s-31.223,12.991-31.683,30.034c-0.052,2.065,0.095,4.131,0.451,6.17
		c-14.327-8.921-33.176-4.539-42.105,9.789c-4.495,7.237-5.771,16.028-3.515,24.255L207.49,299.386L207.49,299.386z"/>
	<path style="fill:#EBEBEB;" d="M442.134,299.386c0.252-1.432,0.399-2.881,0.443-4.339c0.078-16.696-13.399-30.295-30.095-30.373
		c-2.282-0.009-4.556,0.234-6.777,0.738c-6.786-20.419-28.837-31.475-49.265-24.698c-20.419,6.786-31.475,28.837-24.697,49.265
		c1.102,3.332,2.655,6.491,4.608,9.407L442.134,299.386L442.134,299.386z"/>
</g>
<g>
	<polygon style="fill:#4398D1;" points="433.898,507.657 69.424,507.657 34.712,334.097 468.61,334.097 	"/>
	<path style="fill:#4398D1;" d="M17.356,299.386h468.61c9.589,0,17.356,7.767,17.356,17.356l0,0c0,9.589-7.767,17.356-17.356,17.356
		H17.356C7.767,334.097,0,326.331,0,316.741l0,0C0,307.152,7.767,299.386,17.356,299.386z"/>
</g>
<path style="fill:#EBEBEB;" d="M377.162,507.657c3.02-5.155,4.634-11.012,4.669-16.991c0.052-18.918-15.238-34.304-34.156-34.365
	c-15.325-0.043-28.811,10.084-33.037,24.819c-9.693-10.509-26.069-11.169-36.578-1.475c-7.706,7.116-10.361,18.172-6.725,28.012
	H377.162L377.162,507.657z"/>
<polygon style="fill:#398CC4;" points="463.837,357.962 468.61,334.097 34.712,334.097 39.485,357.962 "/>
<path style="fill:#97D3E6;" d="M173.559,299.386h-69.424v86.78c0,9.589,7.767,17.356,17.356,17.356l0,0
	c9.589,0,17.356-7.767,17.356-17.356v-34.712c0-9.589,7.767-17.356,17.356-17.356l0,0c9.589,0,17.356,7.767,17.356,17.356v8.678
	c0,9.589,7.767,17.356,17.356,17.356l0,0c9.589,0,17.356-7.767,17.356-17.356v-60.746H173.559z"/>
<g>
</g>
<g>
</g>
<g>
</g>
<g>
</g>
<g>
</g>
<g>
</g>
<g>
</g>
<g>
</g>
<g>
</g>
<g>
</g>
<g>
</g>
<g>
</g>
<g>
</g>
<g>
</g>
<g>
</g>
</svg>
