<?xml version="1.0" encoding="iso-8859-1"?>
<!-- Generator: Adobe Illustrator 19.0.0, SVG Export Plug-In . SVG Version: 6.00 Build 0)  -->
<svg version="1.1" id="Capa_1" xmlns="http://www.w3.org/2000/svg" xmlns:xlink="http://www.w3.org/1999/xlink" x="0px" y="0px"
	 viewBox="0 0 512 512" style="enable-background:new 0 0 512 512;" xml:space="preserve">
<path style="fill:#F77219;" d="M353.104,512H141.242V256l44.138-70.621h88.276v52.966l71.901,119.834
	c4.935,8.236,7.548,17.655,7.548,27.251V512H353.104z"/>
<path style="fill:#F5671B;" d="M345.557,358.179l-36.679-61.131c-38.656,74.434-96.538,137.154-167.636,181.645V512h211.862V385.43
	C353.104,375.835,350.491,366.415,345.557,358.179z"/>
<g>
	<path style="fill:#D4D4D4;" d="M311.553,147.482c-18.679-18.573-29.14-43.847-29.069-70.179v-15.51h17.655v15.51
		c-0.062,21.654,8.545,42.425,23.896,57.697L311.553,147.482z"/>
	<rect x="317.792" style="fill:#D4D4D4;" width="52.966" height="52.966"/>
</g>
<path style="fill:#EBEBEB;" d="M141.242,88.276L141.242,88.276l61.793,8.828v35.31h52.966v-35.31l61.793-44.138V0h-88.276
	C180.763,0,141.242,39.521,141.242,88.276z"/>
<rect x="185.382" y="132.41" style="fill:#D4D4D4;" width="88.28" height="52.966"/>
<path style="fill:#F5A338;" d="M300.139,467.862H185.38V311.234c0-15.881,12.871-28.751,28.751-28.751l0,0l0,0
	c9.613,0,18.591,4.802,23.923,12.8l62.084,93.131L300.139,467.862L300.139,467.862z"/>
<path style="fill:#F77219;" d="M227.585,446.897l-13.789-11.034l23.834-29.793h-16.94c-4.873,0-8.828-3.955-8.828-8.828
	c0-1.598,0.433-3.169,1.262-4.546l26.483-44.138l15.13,9.092l-18.458,30.764h19.722c4.873,0,8.828,3.946,8.828,8.828
	c0,2.004-0.68,3.955-1.933,5.517L227.585,446.897z"/>
<g>
</g>
<g>
</g>
<g>
</g>
<g>
</g>
<g>
</g>
<g>
</g>
<g>
</g>
<g>
</g>
<g>
</g>
<g>
</g>
<g>
</g>
<g>
</g>
<g>
</g>
<g>
</g>
<g>
</g>
</svg>
