<?xml version="1.0" encoding="iso-8859-1"?>
<!-- Generator: Adobe Illustrator 19.0.0, SVG Export Plug-In . SVG Version: 6.00 Build 0)  -->
<svg version="1.1" id="Capa_1" xmlns="http://www.w3.org/2000/svg" xmlns:xlink="http://www.w3.org/1999/xlink" x="0px" y="0px"
	 viewBox="0 0 512 512" style="enable-background:new 0 0 512 512;" xml:space="preserve">
<rect x="61.793" style="fill:#4398D1;" width="388.41" height="476.69"/>
<polygon style="fill:#4193C9;" points="450.207,141.241 65.969,476.69 450.207,476.69 "/>
<circle style="fill:#EBEBEB;" cx="256" cy="291.31" r="150.07"/>
<circle style="fill:#97D3E6;" cx="256" cy="291.31" r="105.93"/>
<path style="fill:#86C8DC;" d="M323.434,209.62L163.31,342.51c28.231,51.244,92.663,69.888,143.899,41.657
	c51.235-28.231,69.888-92.663,41.657-143.898C342.404,228.537,333.771,218.138,323.434,209.62z"/>
<path style="fill:#EBEBEB;" d="M383.541,212.515l-56.329,29.687c-5.8,3.054-9.419,9.075-9.419,15.625v67.028
	c0,6.541,3.619,12.553,9.401,15.607l56.302,29.767c30.076-48.252,30.093-109.4,0.044-157.67L383.541,212.515z"/>
<g>
	<rect x="61.793" y="97.1" style="fill:#337AB5;" width="388.41" height="17.655"/>
	<path style="fill:#337AB5;" d="M256,79.448c-14.627,0-26.483-11.855-26.483-26.483S241.373,26.483,256,26.483
		c14.627,0,26.483,11.855,26.483,26.483S270.627,79.448,256,79.448z M256,44.138c-4.873,0-8.828,3.955-8.828,8.828
		s3.955,8.828,8.828,8.828c4.873,0,8.828-3.955,8.828-8.828S260.873,44.138,256,44.138z"/>
	<path style="fill:#337AB5;" d="M414.897,79.448h-70.621c-4.873,0-8.828-3.955-8.828-8.828V35.31c0-4.873,3.955-8.828,8.828-8.828
		h70.621c4.873,0,8.828,3.955,8.828,8.828v35.31C423.724,75.494,419.769,79.448,414.897,79.448z M353.103,61.793h52.966V44.138
		h-52.966V61.793z"/>
	<rect x="194.21" y="26.483" style="fill:#337AB5;" width="17.655" height="17.655"/>
	<rect x="194.21" y="61.793" style="fill:#337AB5;" width="17.655" height="17.655"/>
	<rect x="300.14" y="26.483" style="fill:#337AB5;" width="17.655" height="17.655"/>
	<rect x="300.14" y="61.793" style="fill:#337AB5;" width="17.655" height="17.655"/>
	<path style="fill:#337AB5;" d="M176.552,79.448h-17.655v-35.31h-52.966v35.31H88.276V35.31c0-4.873,3.955-8.828,8.828-8.828h70.621
		c4.873,0,8.828,3.955,8.828,8.828v44.138H176.552z"/>
	<rect x="88.28" y="476.69" style="fill:#337AB5;" width="35.31" height="35.31"/>
	<rect x="388.41" y="476.69" style="fill:#337AB5;" width="35.31" height="35.31"/>
</g>
<g>
	<path style="fill:#FFFFFF;" d="M240.552,231.459l-4.414-17.09c6.488-1.668,13.162-2.516,19.862-2.507v17.655
		C250.792,229.517,245.601,230.162,240.552,231.459z"/>
	<path style="fill:#FFFFFF;" d="M194.207,291.31h-17.655c0.044-28.389,15.166-54.607,39.724-68.855l8.828,15.281
		C206.001,248.823,194.233,269.224,194.207,291.31z"/>
</g>
<g>
</g>
<g>
</g>
<g>
</g>
<g>
</g>
<g>
</g>
<g>
</g>
<g>
</g>
<g>
</g>
<g>
</g>
<g>
</g>
<g>
</g>
<g>
</g>
<g>
</g>
<g>
</g>
<g>
</g>
</svg>
