<?xml version="1.0" encoding="iso-8859-1"?>
<!-- Generator: Adobe Illustrator 19.0.0, SVG Export Plug-In . SVG Version: 6.00 Build 0)  -->
<svg version="1.1" id="Capa_1" xmlns="http://www.w3.org/2000/svg" xmlns:xlink="http://www.w3.org/1999/xlink" x="0px" y="0px"
	 viewBox="0 0 512.001 512.001" style="enable-background:new 0 0 512.001 512.001;" xml:space="preserve">
<path style="fill:#F5A338;" d="M310.229,127.241C309.811,61.261,255.984,8.115,190.004,8.533S70.878,62.78,71.296,128.759
	l0.094,77.559c-0.145,17.229,6.34,33.86,18.125,46.43c13.184,13.363,31.292,20.71,50.057,20.318h101.632
	c18.97,0.333,37.239-7.168,50.5-20.736c12.151-12.817,18.833-29.867,18.62-47.531L310.229,127.241z"/>
<path style="fill:#FBCCAD;" d="M301.594,307.2h-51.2c-14.14,0-25.6-11.46-25.6-25.6v-34.133h-68.267V281.6
	c0,14.14-11.46,25.6-25.6,25.6h-51.2c-28.279,0-51.2,22.921-51.2,51.2V512h324.267V358.4
	C352.794,330.121,329.873,307.2,301.594,307.2z"/>
<path style="fill:#FAB98F;" d="M195.781,281.446c10.129-0.666,20.002-3.422,29.013-8.09v-25.89h-68.267v26.146
	C168.688,279.654,182.23,282.359,195.781,281.446z"/>
<path style="fill:#EBEBEB;" d="M352.794,358.4c0-28.279-22.921-51.2-51.2-51.2h-27.452
	c-35.174,44.885-100.079,52.753-144.956,17.587c-6.545-5.129-12.45-11.034-17.587-17.587H79.727c-28.279,0-51.2,22.921-51.2,51.2
	v51.2h48.478c-10.573,25.685-6.383,55.091,10.957,76.8V512h205.397v-25.6c17.34-21.709,21.53-51.115,10.957-76.8h48.478V358.4z"/>
<path style="fill:#E0E0E0;" d="M352.794,358.4c0-28.279-22.921-51.2-51.2-51.2h-27.452c-5.769,7.322-12.51,13.824-20.028,19.337
	c43.691,42.197,44.902,111.821,2.705,155.511c-13.978,14.473-31.659,24.832-51.123,29.952h87.663v-25.6
	c17.34-21.709,21.53-51.115,10.957-76.8h48.478V358.4z"/>
<rect x="412.5" y="273.07" style="fill:#4398D1;" width="17.07" height="51.2"/>
<g>
	<path style="fill:#97D3E6;" d="M438.128,324.267h-40.875c-9.429,0-17.067,7.637-17.067,17.067c0,0.572,0.026,1.143,0.085,1.707
		l5.12,51.2c0.879,8.721,8.218,15.36,16.981,15.36h10.155l-25.6,102.4h68.267V341.333
		C455.194,331.904,447.556,324.267,438.128,324.267z"/>
	<path style="fill:#97D3E6;" d="M387.362,122.163c-4.548-13.551-15.181-24.183-28.732-28.732l5.393-16.213
		c18.645,6.263,33.271,20.89,39.535,39.535L387.362,122.163z"/>
	<rect x="412.5" style="fill:#97D3E6;" width="17.07" height="42.667"/>
	<path style="fill:#97D3E6;" d="M454.758,122.163l-16.213-5.393c6.263-18.645,20.89-33.271,39.535-39.535l5.393,16.213
		C469.931,97.997,459.307,108.621,454.758,122.163z"/>
	<path style="fill:#97D3E6;" d="M387.362,70.963c-4.548-13.551-15.181-24.183-28.732-28.732l5.393-16.213
		c18.645,6.263,33.271,20.89,39.535,39.535L387.362,70.963z"/>
	<path style="fill:#97D3E6;" d="M454.758,70.963l-16.213-5.393c6.263-18.645,20.89-33.271,39.535-39.535l5.393,16.213
		C469.931,46.797,459.307,57.421,454.758,70.963z"/>
	<path style="fill:#97D3E6;" d="M387.362,173.363c-4.548-13.551-15.181-24.183-28.732-28.732l5.393-16.213
		c18.645,6.263,33.271,20.89,39.535,39.535L387.362,173.363z"/>
	<rect x="412.5" y="68.27" style="fill:#97D3E6;" width="17.07" height="42.667"/>
	<path style="fill:#97D3E6;" d="M454.758,173.363l-16.213-5.393c6.263-18.645,20.89-33.271,39.535-39.535l5.393,16.213
		C469.931,149.197,459.307,159.821,454.758,173.363z"/>
	<path style="fill:#97D3E6;" d="M387.362,224.563c-4.548-13.551-15.181-24.183-28.732-28.732l5.393-16.213
		c18.645,6.263,33.271,20.89,39.535,39.535L387.362,224.563z"/>
	<rect x="412.5" y="136.53" style="fill:#97D3E6;" width="17.07" height="42.667"/>
	<path style="fill:#97D3E6;" d="M454.758,224.563l-16.213-5.393c6.263-18.645,20.89-33.271,39.535-39.535l5.393,16.213
		C469.931,200.397,459.307,211.021,454.758,224.563z"/>
	<path style="fill:#97D3E6;" d="M387.362,275.763c-4.548-13.551-15.181-24.183-28.732-28.732l5.393-16.213
		c18.645,6.263,33.271,20.89,39.535,39.535L387.362,275.763z"/>
	<rect x="412.5" y="204.8" style="fill:#97D3E6;" width="17.07" height="42.667"/>
	<path style="fill:#97D3E6;" d="M454.758,275.763l-16.213-5.393c6.263-18.645,20.89-33.271,39.535-39.535l5.393,16.213
		C469.931,251.597,459.307,262.221,454.758,275.763z"/>
</g>
<path style="fill:#4398D1;" d="M403.994,477.867c-14.14,0-25.6-11.46-25.6-25.6l0,0V435.2h17.067v17.067
	c0,4.71,3.823,8.533,8.533,8.533s8.533-3.823,8.533-8.533V409.6h17.067v42.667C429.594,466.406,418.133,477.867,403.994,477.867
	L403.994,477.867z"/>
<path style="fill:#FBCCAD;" d="M267.46,150.989v34.133c0.529,41.105-30.729,75.674-71.68,79.266
	c-42.325,2.825-78.925-29.184-81.749-71.509c-0.111-1.715-0.171-3.43-0.171-5.146v-68.267c-0.017-12.723,3.14-25.25,9.19-36.437
	l10.854,9.984C170.676,126.746,217.712,147.157,267.46,150.989z"/>
<polygon style="fill:#4398D1;" points="275.994,440.627 275.994,307.2 258.927,307.2 258.927,418.133 122.394,418.133 
	122.394,307.2 105.327,307.2 105.327,440.627 87.962,486.4 88.26,512 293.06,512 293.359,486.4 "/>
<path style="fill:#398CC4;" d="M293.359,486.4l-17.365-45.773v-113.63c-4.011,17.459-9.728,34.483-17.067,50.825v40.311h-22.682
	c-27.17,38.912-62.95,71.04-104.559,93.867H293.06L293.359,486.4z"/>
<path style="fill:#FBC5A1;" d="M242.663,147.49c-1.05,50.005-32.367,94.353-79.13,112.085c10.283,3.883,21.274,5.521,32.239,4.796
	c40.96-3.584,72.218-38.153,71.689-79.266v-34.133C259.132,150.281,250.855,149.111,242.663,147.49z"/>
<g>
</g>
<g>
</g>
<g>
</g>
<g>
</g>
<g>
</g>
<g>
</g>
<g>
</g>
<g>
</g>
<g>
</g>
<g>
</g>
<g>
</g>
<g>
</g>
<g>
</g>
<g>
</g>
<g>
</g>
</svg>
