<?xml version="1.0" encoding="iso-8859-1"?>
<!-- Generator: Adobe Illustrator 19.0.0, SVG Export Plug-In . SVG Version: 6.00 Build 0)  -->
<svg version="1.1" id="Capa_1" xmlns="http://www.w3.org/2000/svg" xmlns:xlink="http://www.w3.org/1999/xlink" x="0px" y="0px"
	 viewBox="0 0 512.002 512.002" style="enable-background:new 0 0 512.002 512.002;" xml:space="preserve">
<path style="fill:#337AB5;" d="M257.328,281.843l-27.169-27.169L479.208,5.625c7.508-7.499,19.661-7.499,27.169,0l0,0
	c7.499,7.508,7.499,19.661,0,27.169L257.328,281.843z"/>
<path style="fill:#97D3E6;" d="M239.215,318.069l27.169-27.169l-45.282-45.282l-27.169,27.169
	c-49.366-26.155-110.025-16.963-149.43,22.641l-9.056,9.056l-13.585-13.585c-4.999-4.999-13.114-4.999-18.113,0
	s-4.999,13.114,0,18.113l199.239,199.239c4.999,4.999,13.114,4.999,18.113,0c4.999-4.999,4.999-13.114,0-18.113l-13.585-13.585
	l9.056-9.056C256.187,428.094,265.37,367.435,239.215,318.069z"/>
<path style="fill:#B1E1F0;" d="M160.362,315.415c-16.483-16.446-43.163-16.446-59.645,0l-12.806-12.806
	c23.556-23.51,61.701-23.51,85.256,0L160.362,315.415z"/>
<path style="fill:#7DBDD1;" d="M207.518,476.554c-2.4,0-4.709-0.951-6.403-2.653L60.742,333.528
	c-3.478-3.595-3.378-9.328,0.226-12.806c3.514-3.387,9.074-3.387,12.579,0l140.374,140.373c3.532,3.541,3.532,9.274,0,12.806
	C212.227,475.604,209.918,476.554,207.518,476.554z"/>
<g>
</g>
<g>
</g>
<g>
</g>
<g>
</g>
<g>
</g>
<g>
</g>
<g>
</g>
<g>
</g>
<g>
</g>
<g>
</g>
<g>
</g>
<g>
</g>
<g>
</g>
<g>
</g>
<g>
</g>
</svg>
