<?xml version="1.0" encoding="iso-8859-1"?>
<!-- Generator: Adobe Illustrator 19.0.0, SVG Export Plug-In . SVG Version: 6.00 Build 0)  -->
<svg version="1.1" id="Capa_1" xmlns="http://www.w3.org/2000/svg" xmlns:xlink="http://www.w3.org/1999/xlink" x="0px" y="0px"
	 viewBox="0 0 512 512" style="enable-background:new 0 0 512 512;" xml:space="preserve">
<path style="fill:#7DBDD1;" d="M79.444,441.379v52.966c0,9.754,7.901,17.655,17.655,17.655h317.793
	c9.754,0,17.655-7.901,17.655-17.655v-52.966H79.444z"/>
<path style="fill:#F77219;" d="M79.444,397.241v52.966c0,9.754,7.901,17.655,17.655,17.655h317.793
	c9.754,0,17.655-7.901,17.655-17.655v-52.966H79.444z"/>
<path style="fill:#F5A338;" d="M79.444,353.103v52.966c0,9.754,7.901,17.655,17.655,17.655h317.793
	c9.754,0,17.655-7.901,17.655-17.655v-52.966H79.444z"/>
<path style="fill:#266599;" d="M97.099,0h317.793c9.754,0,17.655,7.901,17.655,17.655v344.276c0,9.754-7.901,17.655-17.655,17.655
	H97.099c-9.754,0-17.655-7.901-17.655-17.655V17.655C79.444,7.901,87.345,0,97.099,0z"/>
<path style="fill:#4398D1;" d="M414.893,0h-78.301l-80.596,132.414L175.074,0H97.099c-9.754,0-17.655,7.901-17.655,17.655v344.276
	c0,9.754,7.901,17.655,17.655,17.655h317.793c9.754,0,17.655-7.901,17.655-17.655V17.655C432.548,7.901,424.647,0,414.893,0z"/>
<path style="fill:#4193C9;" d="M79.444,339.941v21.99c0,9.754,7.901,17.655,17.655,17.655h317.793
	c9.754,0,17.655-7.901,17.655-17.655V54.793C361.344,236.006,172.284,312.497,79.444,339.941z"/>
<g>
	<rect x="247.166" y="132.41" style="fill:#266599;" width="17.655" height="247.17"/>
	<rect x="308.966" y="220.69" style="fill:#266599;" width="123.59" height="17.655"/>
	<rect x="211.856" y="220.69" style="fill:#266599;" width="17.655" height="17.655"/>
	<rect x="211.856" y="317.79" style="fill:#266599;" width="17.655" height="17.655"/>
</g>
<rect x="229.516" y="26.483" style="fill:#4398D1;" width="52.966" height="17.655"/>
<g>
	<polygon style="fill:#53A8E0;" points="176.548,0 255.996,132.414 185.375,167.724 141.237,0 	"/>
	<polygon style="fill:#53A8E0;" points="335.444,0 255.996,132.414 326.617,167.724 370.755,0 	"/>
</g>
<g>
</g>
<g>
</g>
<g>
</g>
<g>
</g>
<g>
</g>
<g>
</g>
<g>
</g>
<g>
</g>
<g>
</g>
<g>
</g>
<g>
</g>
<g>
</g>
<g>
</g>
<g>
</g>
<g>
</g>
</svg>
