<?xml version="1.0" encoding="iso-8859-1"?>
<!-- Generator: Adobe Illustrator 19.0.0, SVG Export Plug-In . SVG Version: 6.00 Build 0)  -->
<svg version="1.1" id="Capa_1" xmlns="http://www.w3.org/2000/svg" xmlns:xlink="http://www.w3.org/1999/xlink" x="0px" y="0px"
	 viewBox="0 0 512.007 512.007" style="enable-background:new 0 0 512.007 512.007;" xml:space="preserve">
<path style="fill:#97D3E6;" d="M173.56,286.373l52.068,52.068h52.068l206.753-214.702c12.114-12.574,18.875-29.358,18.875-46.818
	v-0.746c0-37.281-30.217-67.497-67.497-67.497l0,0c-17.903,0-35.068,7.107-47.729,19.768L173.56,242.983V286.373z"/>
<g>
	<path style="fill:#4398D1;" d="M323.628,327.22c-9.502-9.45-22.354-14.779-35.762-14.813h-18.849v-17.356h18.849
		c18.007,0.052,35.267,7.203,48.033,19.899L323.628,327.22z"/>
	<path style="fill:#4398D1;" d="M288.916,361.932c-9.502-9.45-22.354-14.779-35.762-14.813h-53.56v-17.356h53.56
		c18.007,0.052,35.267,7.203,48.033,19.899L288.916,361.932z"/>
	<path style="fill:#4398D1;" d="M358.34,292.508c-9.502-9.45-22.354-14.779-35.762-14.813h-18.849v-17.356h18.849
		c18.007,0.052,35.267,7.203,48.033,19.899L358.34,292.508z"/>
	<path style="fill:#4398D1;" d="M393.052,257.796c-9.502-9.45-22.354-14.779-35.762-14.813h-18.849v-17.356h18.849
		c18.007,0.052,35.267,7.203,48.033,19.899L393.052,257.796z"/>
	<path style="fill:#4398D1;" d="M427.764,223.084c-9.502-9.45-22.354-14.779-35.762-14.813h-18.849v-17.356h18.849
		c18.007,0.052,35.267,7.203,48.033,19.899L427.764,223.084z"/>
	<path style="fill:#4398D1;" d="M462.475,188.373c-9.502-9.45-22.354-14.779-35.762-14.813h-18.849v-17.356h18.849
		c18.007,0.052,35.267,7.203,48.033,19.899L462.475,188.373z"/>
	<path style="fill:#4398D1;" d="M497.187,153.661c-9.502-9.45-22.354-14.779-35.762-14.813h-18.849v-17.356h18.849
		c18.007,0.052,35.267,7.203,48.033,19.899L497.187,153.661z"/>
	<path style="fill:#4398D1;" d="M512.001,88.767c-5.189-1.293-10.518-1.961-15.863-1.987h-36.204v17.356h36.204
		c5.389,0.009,10.752,0.894,15.863,2.603V88.767z"/>
	
		<rect x="452.738" y="26.025" transform="matrix(0.7071 -0.7071 0.7071 0.7071 115.254 347.6543)" style="fill:#4398D1;" width="49.09" height="17.356"/>
	
		<rect x="400.661" y="78.097" transform="matrix(0.7071 -0.7071 0.7071 0.7071 63.181 326.0816)" style="fill:#4398D1;" width="49.09" height="17.356"/>
	
		<rect x="348.608" y="130.164" transform="matrix(0.7071 -0.7071 0.7071 0.7071 11.1182 304.5247)" style="fill:#4398D1;" width="49.09" height="17.356"/>
	
		<rect x="296.534" y="182.249" transform="matrix(0.7071 -0.7071 0.7071 0.7071 -40.9639 282.9582)" style="fill:#4398D1;" width="49.09" height="17.356"/>
	<path style="fill:#4398D1;" d="M216.95,242.983h-17.356v-18.849c-0.035-13.407-5.363-26.26-14.813-35.762l12.271-12.271
		c12.696,12.765,19.847,30.026,19.899,48.033L216.95,242.983L216.95,242.983z"/>
	<path style="fill:#4398D1;" d="M182.238,312.407h-17.356v-53.56c-0.035-13.407-5.363-26.26-14.813-35.762l12.271-12.271
		c12.696,12.765,19.847,30.026,19.899,48.033L182.238,312.407L182.238,312.407z"/>
	<path style="fill:#4398D1;" d="M251.662,208.271h-17.356v-18.849c-0.035-13.407-5.363-26.26-14.813-35.762l12.271-12.271
		c12.696,12.765,19.847,30.026,19.899,48.033L251.662,208.271L251.662,208.271z"/>
	<path style="fill:#4398D1;" d="M286.373,173.559h-17.356V154.71c-0.035-13.407-5.363-26.26-14.813-35.762l12.271-12.271
		c12.696,12.765,19.846,30.026,19.899,48.033v18.849H286.373z"/>
	<path style="fill:#4398D1;" d="M321.085,138.847h-17.356v-18.849c-0.035-13.407-5.363-26.26-14.813-35.762l12.271-12.271
		c12.696,12.765,19.847,30.026,19.899,48.033v18.849H321.085z"/>
	<path style="fill:#4398D1;" d="M355.797,104.136h-17.356V85.287c-0.035-13.407-5.363-26.26-14.813-35.762l12.271-12.271
		c12.696,12.765,19.846,30.026,19.899,48.033v18.849H355.797z"/>
	<path style="fill:#4398D1;" d="M390.509,69.424h-17.356V50.575c-0.035-13.407-5.363-26.26-14.813-35.762l12.271-12.271
		c12.696,12.765,19.846,30.026,19.899,48.033v18.849H390.509z"/>
	<path style="fill:#4398D1;" d="M423.234,0c1.293,5.189,1.961,10.518,1.987,15.863v36.204h-17.356V15.863
		C407.856,10.474,406.98,5.111,405.262,0H423.234z"/>
	
		<rect x="244.458" y="234.296" transform="matrix(0.7071 -0.7071 0.7071 0.7071 -93.0192 261.3791)" style="fill:#4398D1;" width="49.09" height="17.356"/>
	
		<rect x="192.394" y="286.388" transform="matrix(0.7071 -0.7071 0.7071 0.7071 -145.1035 239.8218)" style="fill:#4398D1;" width="49.09" height="17.356"/>
	<polygon style="fill:#4398D1;" points="173.56,286.373 156.204,329.763 182.238,355.797 225.628,338.441 	"/>
</g>
<rect x="-19.326" y="402.481" transform="matrix(0.7071 -0.7071 0.7071 0.7071 -270.9251 187.7097)" style="fill:#337AB5;" width="220.898" height="36.82"/>
<g>
</g>
<g>
</g>
<g>
</g>
<g>
</g>
<g>
</g>
<g>
</g>
<g>
</g>
<g>
</g>
<g>
</g>
<g>
</g>
<g>
</g>
<g>
</g>
<g>
</g>
<g>
</g>
<g>
</g>
</svg>
