<?xml version="1.0" encoding="iso-8859-1"?>
<!-- Generator: Adobe Illustrator 19.0.0, SVG Export Plug-In . SVG Version: 6.00 Build 0)  -->
<svg version="1.1" id="Capa_1" xmlns="http://www.w3.org/2000/svg" xmlns:xlink="http://www.w3.org/1999/xlink" x="0px" y="0px"
	 viewBox="0 0 512 512" style="enable-background:new 0 0 512 512;" xml:space="preserve">
<path style="fill:#97D3E6;" d="M410.942,157.269H101.094c-8.263,0-16.26,2.895-22.607,8.183L35.31,201.407v229.517l43.14,35.955
	c6.347,5.288,14.345,8.183,22.607,8.183h309.848c8.263,0,16.26-2.895,22.607-8.183l43.176-35.955V201.407l-43.14-35.955
	C427.202,160.164,419.204,157.269,410.942,157.269z"/>
<rect x="476.69" y="201.41" style="fill:#7DBDD1;" width="35.31" height="229.52"/>
<path style="fill:#93CEE0;" d="M47.351,440.952l31.1,25.927c6.347,5.288,14.345,8.183,22.607,8.183h309.848
	c8.263,0,16.26-2.895,22.607-8.183l43.176-35.955V201.407l-23.764-19.8C340.966,341.58,151.411,412.668,47.351,440.952z"/>
<g>
	<path style="fill:#7DBDD1;" d="M410.942,475.062H101.094c-8.263,0-16.26-2.895-22.607-8.183L35.31,430.924l43.14-35.955
		c6.347-5.288,14.345-8.183,22.607-8.183h309.848c8.263,0,16.26,2.895,22.607,8.183l43.176,35.955l-43.14,35.955
		C427.202,472.166,419.204,475.062,410.942,475.062z"/>
	<rect y="201.41" style="fill:#7DBDD1;" width="35.31" height="229.52"/>
</g>
<path style="fill:#EBEBEB;" d="M176.552,272.027L97.103,60.165h78.742c12.032,0,23.852-3.143,34.304-9.11l8.775-5.014
	c22.731-12.985,50.856-12.014,72.642,2.507l0,0c11.352,7.565,24.691,11.608,38.329,11.617h85.001l-79.448,211.862H176.552z"/>
<g>
	
		<rect x="208.011" y="94.571" transform="matrix(0.9887 -0.15 0.15 0.9887 -25.4924 34.6332)" style="fill:#D4D4D4;" width="17.655" height="183.473"/>
	
		<rect x="204.378" y="176.512" transform="matrix(0.1494 -0.9888 0.9888 0.1494 67.9523 449.6715)" style="fill:#D4D4D4;" width="181.914" height="17.656"/>
</g>
<rect x="132.41" y="263.2" style="fill:#7DBDD1;" width="247.17" height="17.655"/>
<g>
</g>
<g>
</g>
<g>
</g>
<g>
</g>
<g>
</g>
<g>
</g>
<g>
</g>
<g>
</g>
<g>
</g>
<g>
</g>
<g>
</g>
<g>
</g>
<g>
</g>
<g>
</g>
<g>
</g>
</svg>
