<?xml version="1.0" encoding="iso-8859-1"?>
<!-- Generator: Adobe Illustrator 19.0.0, SVG Export Plug-In . SVG Version: 6.00 Build 0)  -->
<svg version="1.1" id="Capa_1" xmlns="http://www.w3.org/2000/svg" xmlns:xlink="http://www.w3.org/1999/xlink" x="0px" y="0px"
	 viewBox="0 0 512 512" style="enable-background:new 0 0 512 512;" xml:space="preserve">
<rect x="61.793" style="fill:#4398D1;" width="388.41" height="476.69"/>
<polygon style="fill:#4193C9;" points="61.793,397.241 61.793,476.69 450.207,476.69 450.207,8.828 "/>
<g>
	<rect x="88.28" y="476.69" style="fill:#337AB5;" width="35.31" height="35.31"/>
	<rect x="388.41" y="476.69" style="fill:#337AB5;" width="35.31" height="35.31"/>
</g>
<rect x="97.1" y="70.62" style="fill:#97D3E6;" width="317.79" height="370.76"/>
<path style="fill:#EBEBEB;" d="M132.414,264.828L132.414,264.828c19.5,0,35.31,15.81,35.31,35.31v70.621
	c0,19.5-15.81,35.31-35.31,35.31l0,0l0,0V264.828L132.414,264.828z"/>
<path style="fill:#D4D4D4;" d="M167.724,264.828L167.724,264.828c19.5,0,35.31,15.81,35.31,35.31v70.621
	c0,19.5-15.81,35.31-35.31,35.31l0,0l0,0V264.828L167.724,264.828z"/>
<path style="fill:#EBEBEB;" d="M203.034,264.828L203.034,264.828c19.5,0,35.31,15.81,35.31,35.31v70.621
	c0,19.5-15.81,35.31-35.31,35.31l0,0l0,0V264.828L203.034,264.828z"/>
<path style="fill:#D4D4D4;" d="M273.655,300.138L273.655,300.138c19.5,0,35.31,15.81,35.31,35.31v35.31
	c0,19.5-15.81,35.31-35.31,35.31l0,0l0,0V300.138L273.655,300.138z"/>
<path style="fill:#EBEBEB;" d="M308.966,300.138L308.966,300.138c19.5,0,35.31,15.81,35.31,35.31v35.31
	c0,19.5-15.81,35.31-35.31,35.31l0,0l0,0V300.138L308.966,300.138z"/>
<path style="fill:#D4D4D4;" d="M344.276,300.138L344.276,300.138c19.5,0,35.31,15.81,35.31,35.31v35.31
	c0,19.5-15.81,35.31-35.31,35.31l0,0l0,0V300.138L344.276,300.138z"/>
<circle style="fill:#EBEBEB;" cx="194.21" cy="167.72" r="61.793"/>
<g>
	<path style="fill:#D4D4D4;" d="M194.207,211.862v-17.655c14.627,0,26.483-11.855,26.483-26.483h17.655
		C238.318,192.088,218.571,211.836,194.207,211.862z"/>
	<path style="fill:#D4D4D4;" d="M167.724,167.724h-17.655c0.026-24.364,19.774-44.111,44.138-44.138v17.655
		C179.58,141.241,167.724,153.097,167.724,167.724z"/>
</g>
<polygon style="fill:#EBEBEB;" points="361.931,229.517 291.31,229.517 300.138,132.414 353.103,132.414 "/>
<rect x="353.1" y="26.483" style="fill:#E8594A;" width="17.655" height="17.655"/>
<rect x="211.86" y="26.483" style="fill:#337AB5;" width="88.28" height="17.655"/>
<rect x="317.79" y="26.483" style="fill:#F9B44D;" width="17.655" height="17.655"/>
<g>
	<rect x="176.55" y="26.483" style="fill:#337AB5;" width="17.655" height="17.655"/>
	<rect x="141.24" y="26.483" style="fill:#337AB5;" width="17.655" height="17.655"/>
</g>
<g>
	<rect x="97.1" y="167.72" style="fill:#7DBDD1;" width="317.79" height="17.655"/>
	<rect x="97.1" y="220.69" style="fill:#7DBDD1;" width="317.79" height="17.655"/>
	<rect x="97.1" y="344.28" style="fill:#7DBDD1;" width="317.79" height="17.655"/>
	<rect x="97.1" y="397.24" style="fill:#7DBDD1;" width="317.79" height="17.655"/>
</g>
<g>
</g>
<g>
</g>
<g>
</g>
<g>
</g>
<g>
</g>
<g>
</g>
<g>
</g>
<g>
</g>
<g>
</g>
<g>
</g>
<g>
</g>
<g>
</g>
<g>
</g>
<g>
</g>
<g>
</g>
</svg>
