<?xml version="1.0" encoding="iso-8859-1"?>
<!-- Generator: Adobe Illustrator 19.0.0, SVG Export Plug-In . SVG Version: 6.00 Build 0)  -->
<svg version="1.1" id="Capa_1" xmlns="http://www.w3.org/2000/svg" xmlns:xlink="http://www.w3.org/1999/xlink" x="0px" y="0px"
	 viewBox="0 0 512 512" style="enable-background:new 0 0 512 512;" xml:space="preserve">
<polygon style="fill:#4398D1;" points="403.52,512 108.47,512 82.436,95.458 429.554,95.458 "/>
<path style="fill:#4193C9;" d="M395.988,95.458C343.33,283.119,194.425,387.697,103.697,435.686L108.47,512h295.051l26.034-416.542
	C429.555,95.458,395.988,95.458,395.988,95.458z"/>
<rect x="56.405" y="60.746" style="fill:#4398D1;" width="399.19" height="34.712"/>
<path style="fill:#398CC4;" d="M316.741,60.746h-17.356V26.034c0-4.79-3.888-8.678-8.678-8.678h-69.424
	c-4.79,0-8.678,3.888-8.678,8.678v34.712h-17.356V26.034C195.249,11.655,206.904,0,221.283,0h69.424
	c14.379,0,26.034,11.655,26.034,26.034V60.746z"/>
<g>
	<rect x="247.315" y="182.24" style="fill:#266599;" width="17.356" height="242.98"/>
	<rect x="195.245" y="182.24" style="fill:#266599;" width="17.356" height="242.98"/>
	
		<rect x="138.842" y="182.155" transform="matrix(0.9994 -0.0357 0.0357 0.9994 -10.7492 5.4599)" style="fill:#266599;" width="17.358" height="243.179"/>
	
		<rect x="242.894" y="295.048" transform="matrix(0.0361 -0.9993 0.9993 0.0361 47.7789 656.9853)" style="fill:#266599;" width="243.138" height="17.354"/>
	<rect x="299.385" y="182.24" style="fill:#266599;" width="17.356" height="242.98"/>
	<polygon style="fill:#266599;" points="85.152,138.847 86.237,156.203 425.762,156.203 426.847,138.847 	"/>
	<polygon style="fill:#266599;" points="105.762,468.61 406.237,468.61 407.321,451.254 104.677,451.254 	"/>
</g>
<polygon style="fill:#398CC4;" points="427.932,121.492 429.554,95.458 82.436,95.458 84.067,121.492 "/>
<g>
</g>
<g>
</g>
<g>
</g>
<g>
</g>
<g>
</g>
<g>
</g>
<g>
</g>
<g>
</g>
<g>
</g>
<g>
</g>
<g>
</g>
<g>
</g>
<g>
</g>
<g>
</g>
<g>
</g>
</svg>
