<?xml version="1.0" encoding="iso-8859-1"?>
<!-- Generator: Adobe Illustrator 19.0.0, SVG Export Plug-In . SVG Version: 6.00 Build 0)  -->
<svg version="1.1" id="Capa_1" xmlns="http://www.w3.org/2000/svg" xmlns:xlink="http://www.w3.org/1999/xlink" x="0px" y="0px"
	 viewBox="0 0 512 512" style="enable-background:new 0 0 512 512;" xml:space="preserve">
<polygon style="fill:#4398D1;" points="363.792,512 148.214,512 121.266,251.509 390.74,251.509 "/>
<path style="fill:#4193C9;" d="M142.824,463.495l5.39,48.505h215.579l26.947-260.491h-44.912
	C301.814,341.333,230.852,415.888,142.824,463.495z"/>
<rect x="85.333" y="215.58" style="fill:#4398D1;" width="341.33" height="35.93"/>
<g>
	
		<rect x="167.097" y="340.46" transform="matrix(0.9949 -0.101 0.101 0.9949 -39.8365 19.8463)" style="fill:#53A8E0;" width="17.965" height="125.762"/>
	
		<rect x="158.109" y="296.433" transform="matrix(0.9964 -0.0851 0.0851 0.9964 -25.6134 15.3368)" style="fill:#53A8E0;" width="17.965" height="23.356"/>
</g>
<polygon style="fill:#398CC4;" points="121.266,251.509 123.063,269.474 388.943,269.474 390.74,251.509 "/>
<path style="fill:#97D3E6;" d="M249.715,0C157.196,3.593,85.336,82.639,85.336,175.158v40.421h35.93v-44.912
	c0-36.828,15.27-71.86,41.319-97.011c7.186-7.186,16.168-11.677,26.049-15.27l0,0c8.982-2.695,17.965-2.695,26.947,0l0,0
	c8.982,2.695,17.965,2.695,26.947,0l0,0c8.982-2.695,17.965-2.695,26.947,0l0,0c8.982,2.695,17.965,2.695,26.947,0l0,0
	c8.982-2.695,17.965-2.695,26.947,0l0,0c9.881,2.695,18.863,8.084,26.049,15.27c26.049,25.151,41.319,60.182,41.319,97.011v44.912
	h35.93v-44.912C426.67,76.351,350.319,0,256.003,0C254.207,0,252.41,0,249.715,0z"/>
<g>
</g>
<g>
</g>
<g>
</g>
<g>
</g>
<g>
</g>
<g>
</g>
<g>
</g>
<g>
</g>
<g>
</g>
<g>
</g>
<g>
</g>
<g>
</g>
<g>
</g>
<g>
</g>
<g>
</g>
</svg>
