<?xml version="1.0" encoding="iso-8859-1"?>
<!-- Generator: Adobe Illustrator 19.0.0, SVG Export Plug-In . SVG Version: 6.00 Build 0)  -->
<svg version="1.1" id="Capa_1" xmlns="http://www.w3.org/2000/svg" xmlns:xlink="http://www.w3.org/1999/xlink" x="0px" y="0px"
	 viewBox="0 0 512 512" style="enable-background:new 0 0 512 512;" xml:space="preserve">
<path style="fill:#97D3E6;" d="M186.576,501.586c0-6.075-1.736-11.281-4.339-16.488s-4.339-11.281-4.339-16.488V332.366
	c0-45.993-34.712-86.78-80.705-89.383c-51.2-3.471-92.854,37.315-92.854,86.78V468.61c0,19.092,15.62,34.712,39.919,34.712h142.319
	L186.576,501.586L186.576,501.586z"/>
<g>
	<path style="fill:#7DBDD1;" d="M108.475,512c-24.298,0-43.39-19.092-43.39-43.39v-86.78c0-5.207,3.471-8.678,8.678-8.678
		s8.678,3.471,8.678,8.678v86.78c0,14.753,11.281,26.034,26.034,26.034c5.207,0,8.678,3.471,8.678,8.678S113.681,512,108.475,512z"
		/>
	<path style="fill:#7DBDD1;" d="M73.763,512c-24.298,0-43.39-19.092-43.39-43.39V338.441c0-5.207,3.471-8.678,8.678-8.678
		s8.678,3.471,8.678,8.678V468.61c0,14.753,11.281,26.034,26.034,26.034c5.207,0,8.678,3.471,8.678,8.678S78.969,512,73.763,512z"/>
	<path style="fill:#7DBDD1;" d="M143.186,512c-24.298,0-43.39-19.092-43.39-43.39v-86.78c0-5.207,3.471-8.678,8.678-8.678
		s8.678,3.471,8.678,8.678v86.78c0,14.753,11.281,26.034,26.034,26.034c5.207,0,8.678,3.471,8.678,8.678S148.393,512,143.186,512z"
		/>
	<path style="fill:#7DBDD1;" d="M177.898,512c-24.298,0-43.39-19.092-43.39-43.39V338.441c0-5.207,3.471-8.678,8.678-8.678
		s8.678,3.471,8.678,8.678V468.61c0,14.753,11.281,26.034,26.034,26.034c5.207,0,8.678,3.471,8.678,8.678
		C186.576,508.529,183.105,512,177.898,512z"/>
</g>
<circle style="fill:#4398D1;" cx="91.12" cy="329.76" r="60.746"/>
<path style="fill:#337AB5;" d="M104.136,342.78L420.881,26.034L394.847,0L78.102,316.746c-6.942,6.942-6.942,19.092,0,26.034l0,0
	C85.044,349.722,97.193,349.722,104.136,342.78z"/>
<g>
	
		<rect x="355.969" y="16.558" transform="matrix(0.7071 -0.7071 0.7071 0.7071 88.6895 283.6776)" style="fill:#4398D1;" width="61.609" height="36.447"/>
	<path style="fill:#4398D1;" d="M229.966,321.085l12.149,124.963c3.471,32.108,30.373,57.275,62.481,57.275h17.356
		c7.81,0,15.62-1.736,23.431-4.339l8.678-3.471c14.753-6.075,32.108-6.075,46.861,0l8.678,3.471
		c7.81,2.603,15.62,4.339,23.431,4.339l0,0c32.108,0,59.878-24.298,62.481-57.275l12.149-124.963L229.966,321.085L229.966,321.085z"
		/>
</g>
<g>
	<path style="fill:#266599;" d="M377.492,425.22L377.492,425.22c5.207,0,8.678,3.471,8.678,8.678v52.068
		c0,5.207-3.471,8.678-8.678,8.678l0,0c-5.207,0-8.678-3.471-8.678-8.678v-52.068C368.814,428.692,372.285,425.22,377.492,425.22z"
		/>
	<path style="fill:#266599;" d="M429.559,251.661c-9.546,0-19.092,1.736-27.77,4.339c-21.695,6.942-44.258,6.942-65.953,0
		c-8.678-2.603-18.224-4.339-27.769-4.339c-43.39,0-78.102,31.241-78.102,69.424s34.712,69.424,78.102,69.424
		c9.546,0,19.092-1.736,27.769-4.339c21.695-6.942,44.258-6.942,65.953,0c8.678,2.603,18.224,4.339,27.77,4.339
		c43.39,0,78.102-31.241,78.102-69.424S472.949,251.661,429.559,251.661z"/>
</g>
<path style="fill:#97D3E6;" d="M308.068,390.508c9.546,0,19.092-1.736,27.769-4.339c21.695-6.942,44.258-6.942,65.953,0
	c8.678,2.603,18.224,4.339,27.77,4.339c26.902,0.868,52.068-12.149,67.688-34.712c-15.62-22.563-40.786-35.58-67.688-34.712
	c-9.546,0-19.092,1.736-27.77,4.339c-21.695,6.942-44.258,6.942-65.953,0c-8.678-2.603-18.224-4.339-27.769-4.339
	c-26.902-0.868-52.068,12.149-67.688,34.712C256,378.359,281.166,391.376,308.068,390.508z"/>
<ellipse style="fill:#398CC4;" cx="308.07" cy="321.95" rx="78.1" ry="70.29"/>
<g>
	<path style="fill:#266599;" d="M316.746,322.82v-45.125H299.39v45.125c2.603,0,6.075-0.868,8.678-0.868
		C310.671,321.953,314.142,321.953,316.746,322.82z"/>
	<path style="fill:#266599;" d="M282.034,286.373h-17.356v47.729c5.207-3.471,11.281-6.075,17.356-7.81V286.373z"/>
	<path style="fill:#266599;" d="M351.458,286.373h-17.356v39.919c6.075,1.736,12.149,4.339,17.356,7.81V286.373z"/>
</g>
<g>
</g>
<g>
</g>
<g>
</g>
<g>
</g>
<g>
</g>
<g>
</g>
<g>
</g>
<g>
</g>
<g>
</g>
<g>
</g>
<g>
</g>
<g>
</g>
<g>
</g>
<g>
</g>
<g>
</g>
</svg>
