<?xml version="1.0" encoding="iso-8859-1"?>
<!-- Generator: Adobe Illustrator 19.0.0, SVG Export Plug-In . SVG Version: 6.00 Build 0)  -->
<svg version="1.1" id="Capa_1" xmlns="http://www.w3.org/2000/svg" xmlns:xlink="http://www.w3.org/1999/xlink" x="0px" y="0px"
	 viewBox="0 0 512 512" style="enable-background:new 0 0 512 512;" xml:space="preserve">
<polygon style="fill:#4398D1;" points="432.552,481.103 79.448,481.103 44.138,304.552 467.862,304.552 "/>
<path style="fill:#4193C9;" d="M76.968,468.683l2.481,12.42h353.103l35.31-176.552h-31.779
	C340.815,407.243,181.513,450.648,76.968,468.683z"/>
<rect x="158.9" y="145.66" style="fill:#6DB9D1;" width="17.655" height="123.59"/>
<path style="fill:#4398D1;" d="M17.655,269.241h476.69c9.754,0,17.655,7.901,17.655,17.655l0,0c0,9.754-7.901,17.655-17.655,17.655
	H17.655C7.901,304.552,0,296.651,0,286.897l0,0C0,277.142,7.901,269.241,17.655,269.241z"/>
<g>
	<rect x="238.34" y="172.14" style="fill:#97D3E6;" width="35.31" height="97.1"/>
	<rect x="141.24" y="198.62" style="fill:#97D3E6;" width="97.1" height="35.31"/>
	<rect x="273.65" y="198.62" style="fill:#97D3E6;" width="52.966" height="35.31"/>
	<path style="fill:#97D3E6;" d="M264.828,172.138h-17.655V66.207c0-9.754-7.901-17.655-17.655-17.655s-17.655,7.901-17.655,17.655
		v17.655h-17.655V66.207c0-19.5,15.81-35.31,35.31-35.31s35.31,15.81,35.31,35.31V172.138z"/>
	<rect x="194.21" y="163.31" style="fill:#97D3E6;" width="17.655" height="35.31"/>
	<rect x="300.14" y="163.31" style="fill:#97D3E6;" width="17.655" height="35.31"/>
</g>
<g>
	
		<rect x="91.578" y="374.731" transform="matrix(0.9839 -0.179 0.179 0.9839 -71.0745 24.53)" style="fill:#53A8E0;" width="17.648" height="62.823"/>
	
		<rect x="81.03" y="339.717" transform="matrix(0.9839 -0.1787 0.1787 0.9839 -60.8648 21.6704)" style="fill:#53A8E0;" width="17.655" height="17.946"/>
</g>
<polygon style="fill:#398CC4;" points="462.786,329.931 467.862,304.552 44.138,304.552 49.214,329.931 "/>
<circle style="fill:#97D3E6;" cx="167.72" cy="128" r="35.31"/>
<g>
</g>
<g>
</g>
<g>
</g>
<g>
</g>
<g>
</g>
<g>
</g>
<g>
</g>
<g>
</g>
<g>
</g>
<g>
</g>
<g>
</g>
<g>
</g>
<g>
</g>
<g>
</g>
<g>
</g>
</svg>
