<?xml version="1.0" encoding="iso-8859-1"?>
<!-- Generator: Adobe Illustrator 19.0.0, SVG Export Plug-In . SVG Version: 6.00 Build 0)  -->
<svg version="1.1" id="Capa_1" xmlns="http://www.w3.org/2000/svg" xmlns:xlink="http://www.w3.org/1999/xlink" x="0px" y="0px"
	 viewBox="0 0 512 512" style="enable-background:new 0 0 512 512;" xml:space="preserve">
<path style="fill:#4398D1;" d="M397.241,0c-27.012,11.573-50.547,22.952-71.627,34.304l32.874,32.874
	c11.652,11.652,11.652,30.543,0,42.196L258.366,209.496c-11.22,11.22-29.263,11.697-41.066,1.086l-53.027-47.731
	c-11.29,12.879-21.822,26.403-31.541,40.501c-8.413,12.12-16.463,24.717-24.099,37.694C37.076,362.575,0,512,0,512h97.103
	l147.518-134.965l32.274-29.519L512,132.414L397.241,0z"/>
<path style="fill:#4193C9;" d="M459.343,71.662C348.451,264.678,130.083,376.32,28.248,419.928C9.534,473.6,0,512,0,512h97.103
	l147.518-134.965l32.274-29.519L512,132.414L459.343,71.662z"/>
<path style="fill:#97D3E6;" d="M358.1,66.79l-32.486-32.486c-59.878,31.417-113.417,73.657-157.89,124.593
	c-1.165,1.28-2.295,2.648-3.452,3.955l37.173,33.457C247.57,146.255,300.27,102.682,358.1,66.79z"/>
<g>
	
		<rect x="248.67" y="238.33" transform="matrix(0.7071 -0.7071 0.7071 0.7071 -94.6201 265.8822)" style="fill:#337AB5;" width="49.937" height="17.655"/>
	
		<rect x="275.165" y="264.817" transform="matrix(0.7071 -0.7071 0.7071 0.7071 -105.5891 292.3747)" style="fill:#337AB5;" width="49.937" height="17.655"/>
	<path style="fill:#337AB5;" d="M132.732,203.352c-8.413,12.12-16.463,24.717-24.099,37.694l135.989,135.945l32.274-29.519
		L132.732,203.352z"/>
</g>
<g>
</g>
<g>
</g>
<g>
</g>
<g>
</g>
<g>
</g>
<g>
</g>
<g>
</g>
<g>
</g>
<g>
</g>
<g>
</g>
<g>
</g>
<g>
</g>
<g>
</g>
<g>
</g>
<g>
</g>
</svg>
